<svg xmlns="http://www.w3.org/2000/svg" xmlns:xlink="http://www.w3.org/1999/xlink" width="152" height="70" viewBox="0 0 152 70"><defs><clipPath id="a"><rect width="152" height="70" fill="#3a9aed"/></clipPath></defs><g clip-path="url(#a)"><g transform="translate(-47.331)"><rect width="152" height="70" transform="translate(47.331)" fill="#3a9aed"/><g transform="translate(0 0.092)"><g transform="translate(45.373)"><path d="M1959-82.177l6.836-8.678" transform="translate(-1957.042 90.855)" fill="none" stroke="#fff" stroke-width="1" opacity="0.1"/><path d="M1959-72.159l14.729-18.7" transform="translate(-1957.751 90.855)" fill="none" stroke="#fff" stroke-width="1" opacity="0.1"/><path d="M1959-62.66l22.211-28.195" transform="translate(-1958.05 90.855)" fill="none" stroke="#fff" stroke-width="1" opacity="0.1"/><path d="M1959-53.541l29.4-37.314" transform="translate(-1958.049 90.855)" fill="none" stroke="#fff" stroke-width="1" opacity="0.1"/><path d="M1959-43.215l37.53-47.64" transform="translate(-1959 90.855)" fill="none" stroke="#fff" stroke-width="1" opacity="0.1"/><path d="M1959-34.1l44.714-56.76" transform="translate(-1959 90.855)" fill="none" stroke="#fff" stroke-width="1" opacity="0.1"/><path d="M1959-24.976l51.9-65.879" transform="translate(-1959 90.855)" fill="none" stroke="#fff" stroke-width="1" opacity="0.1"/><path d="M1959-17.442l57.833-73.413" transform="translate(-1957.751 90.855)" fill="none" stroke="#fff" stroke-width="1" opacity="0.1"/><path d="M1959-13.561l60.89-77.294" transform="translate(-1953.625 90.855)" fill="none" stroke="#fff" stroke-width="1" opacity="0.1"/><path d="M1959-16.218l58.8-74.637" transform="translate(-1944.348 90.855)" fill="none" stroke="#fff" stroke-width="1" opacity="0.1"/><path d="M1959-16.218l58.8-74.637" transform="translate(-1937.164 90.855)" fill="none" stroke="#fff" stroke-width="1" opacity="0.1"/><path d="M1959-13.561l60.89-77.294" transform="translate(-1932.073 90.855)" fill="none" stroke="#fff" stroke-width="1" opacity="0.1"/><path d="M1959-16.218l58.8-74.637" transform="translate(-1922.796 90.855)" fill="none" stroke="#fff" stroke-width="1" opacity="0.1"/><path d="M1959-17.442l57.833-73.413" transform="translate(-1914.647 90.855)" fill="none" stroke="#fff" stroke-width="1" opacity="0.1"/><path d="M1959-5.776l67.024-85.079" transform="translate(-1916.653 90.855)" fill="none" stroke="#fff" stroke-width="1" opacity="0.1"/><path d="M1959-16.218l58.8-74.637" transform="translate(-1901.243 90.855)" fill="none" stroke="#fff" stroke-width="1" opacity="0.1"/><path d="M1959-12.474l61.746-78.381" transform="translate(-1897.008 90.855)" fill="none" stroke="#fff" stroke-width="1" opacity="0.1"/><path d="M1959-16.218l58.8-74.637" transform="translate(-1886.875 90.855)" fill="none" stroke="#fff" stroke-width="1" opacity="0.1"/><path d="M1959-17.9l57.472-72.955" transform="translate(-1878.365 90.855)" fill="none" stroke="#fff" stroke-width="1" opacity="0.1"/><path d="M1959-7.414l65.733-83.441" transform="translate(-1879.442 90.855)" fill="none" stroke="#fff" stroke-width="1" opacity="0.1"/><path d="M1959-13.561l60.89-77.294" transform="translate(-1867.416 90.855)" fill="none" stroke="#fff" stroke-width="1" opacity="0.1"/><path d="M1959-9.705l63.928-81.15" transform="translate(-1863.269 90.855)" fill="none" stroke="#fff" stroke-width="1" opacity="0.1"/><path d="M1959-9.705l63.928-81.15" transform="translate(-1856.085 90.855)" fill="none" stroke="#fff" stroke-width="1" opacity="0.1"/><path d="M1959-9.705l63.928-81.15" transform="translate(-1848.901 90.855)" fill="none" stroke="#fff" stroke-width="1" opacity="0.1"/><path d="M1959-9.705l63.928-81.15" transform="translate(-1841.716 90.855)" fill="none" stroke="#fff" stroke-width="1" opacity="0.1"/><path d="M1959-9.705l63.928-81.15" transform="translate(-1834.532 90.855)" fill="none" stroke="#fff" stroke-width="1" opacity="0.1"/><path d="M1959-9.705l63.928-81.15" transform="translate(-1827.348 90.855)" fill="none" stroke="#fff" stroke-width="1" opacity="0.1"/><path d="M1959-9.705l63.928-81.15" transform="translate(-1819.786 90.855)" fill="none" stroke="#fff" stroke-width="1" opacity="0.1"/></g><path d="M1965.836-82.177,1959-90.855" transform="translate(-1764.652 90.855)" fill="none" stroke="#fff" stroke-width="1" opacity="0.1"/><path d="M1973.729-72.159,1959-90.855" transform="translate(-1771.836 90.855)" fill="none" stroke="#fff" stroke-width="1" opacity="0.1"/><path d="M1981.211-62.66,1959-90.855" transform="translate(-1779.02 90.855)" fill="none" stroke="#fff" stroke-width="1" opacity="0.1"/><path d="M1988.4-53.541,1959-90.855" transform="translate(-1786.203 90.855)" fill="none" stroke="#fff" stroke-width="1" opacity="0.1"/><path d="M1996.529-43.215,1959-90.855" transform="translate(-1793.388 90.855)" fill="none" stroke="#fff" stroke-width="1" opacity="0.1"/><path d="M2003.714-34.1,1959-90.855" transform="translate(-1800.572 90.855)" fill="none" stroke="#fff" stroke-width="1" opacity="0.1"/><path d="M2010.9-24.976,1959-90.855" transform="translate(-1807.757 90.855)" fill="none" stroke="#fff" stroke-width="1" opacity="0.1"/><path d="M2016.833-17.442,1959-90.855" transform="translate(-1814.941 90.855)" fill="none" stroke="#fff" stroke-width="1" opacity="0.1"/><path d="M2019.891-13.561,1959-90.855" transform="translate(-1822.126 90.855)" fill="none" stroke="#fff" stroke-width="1" opacity="0.1"/><path d="M2017.8-16.218,1959-90.855" transform="translate(-1829.31 90.855)" fill="none" stroke="#fff" stroke-width="1" opacity="0.1"/><path d="M2017.8-16.218,1959-90.855" transform="translate(-1836.494 90.855)" fill="none" stroke="#fff" stroke-width="1" opacity="0.1"/><path d="M2019.891-13.561,1959-90.855" transform="translate(-1843.678 90.855)" fill="none" stroke="#fff" stroke-width="1" opacity="0.1"/><path d="M2017.8-16.218,1959-90.855" transform="translate(-1850.862 90.855)" fill="none" stroke="#fff" stroke-width="1" opacity="0.1"/><path d="M2016.834-17.442,1959-90.855" transform="translate(-1858.046 90.855)" fill="none" stroke="#fff" stroke-width="1" opacity="0.1"/><path d="M2026.024-5.776,1959-90.855" transform="translate(-1865.229 90.855)" fill="none" stroke="#fff" stroke-width="1" opacity="0.1"/><path d="M2017.8-16.218,1959-90.855" transform="translate(-1872.414 90.855)" fill="none" stroke="#fff" stroke-width="1" opacity="0.1"/><path d="M2020.747-12.474,1959-90.855" transform="translate(-1879.598 90.855)" fill="none" stroke="#fff" stroke-width="1" opacity="0.1"/><path d="M2017.8-16.218,1959-90.855" transform="translate(-1886.782 90.855)" fill="none" stroke="#fff" stroke-width="1" opacity="0.1"/><path d="M2016.472-17.9,1959-90.855" transform="translate(-1893.965 90.855)" fill="none" stroke="#fff" stroke-width="1" opacity="0.1"/><path d="M2024.733-7.414,1959-90.855" transform="translate(-1901.149 90.855)" fill="none" stroke="#fff" stroke-width="1" opacity="0.1"/><path d="M2019.891-13.561,1959-90.855" transform="translate(-1908.335 90.855)" fill="none" stroke="#fff" stroke-width="1" opacity="0.1"/><path d="M2022.928-9.705,1959-90.855" transform="translate(-1915.517 90.855)" fill="none" stroke="#fff" stroke-width="1" opacity="0.1"/><path d="M2022.928-9.705,1959-90.855" transform="translate(-1922.702 90.855)" fill="none" stroke="#fff" stroke-width="1" opacity="0.1"/><path d="M2022.928-9.705,1959-90.855" transform="translate(-1929.886 90.855)" fill="none" stroke="#fff" stroke-width="1" opacity="0.1"/><path d="M2022.928-9.705,1959-90.855" transform="translate(-1937.07 90.855)" fill="none" stroke="#fff" stroke-width="1" opacity="0.1"/><path d="M2022.928-9.705,1959-90.855" transform="translate(-1944.254 90.855)" fill="none" stroke="#fff" stroke-width="1" opacity="0.1"/><path d="M2022.928-9.705,1959-90.855" transform="translate(-1951.438 90.855)" fill="none" stroke="#fff" stroke-width="1" opacity="0.1"/><path d="M2022.928-9.705,1959-90.855" transform="translate(-1959 90.855)" fill="none" stroke="#fff" stroke-width="1" opacity="0.1"/></g></g><text transform="translate(54 42)" fill="#fff" font-size="24" font-family="Avenir-Black, Avenir" font-weight="800" letter-spacing="0.3em"><tspan x="0" y="0">FDG</tspan></text></g></svg>