<svg xmlns="http://www.w3.org/2000/svg" xmlns:xlink="http://www.w3.org/1999/xlink" width="402" height="110" viewBox="0 0 402 110"><defs><clipPath id="a"><rect width="402" height="110" fill="#3a9aed"/></clipPath></defs><g clip-path="url(#a)"><rect width="402" height="110" fill="#3a9aed"/><path d="M1959-77.219l18.08-13.637" transform="translate(-1959 91)" fill="none" stroke="#fff" stroke-width="1" opacity="0.1"/><path d="M1959-61.475l38.953-29.38" transform="translate(-1960.873 91)" fill="none" stroke="#fff" stroke-width="1" opacity="0.1"/><path d="M1959-46.549l58.743-44.306" transform="translate(-1961.663 91)" fill="none" stroke="#fff" stroke-width="1" opacity="0.1"/><path d="M1959-32.218l77.743-58.637" transform="translate(-1961.663 91)" fill="none" stroke="#fff" stroke-width="1" opacity="0.1"/><path d="M1959-15.992l99.257-74.863" transform="translate(-1964.177 91)" fill="none" stroke="#fff" stroke-width="1" opacity="0.1"/><path d="M1959-1.661l118.257-89.194" transform="translate(-1964.177 91)" fill="none" stroke="#fff" stroke-width="1" opacity="0.1"/><path d="M1959,12.669,2096.258-90.855" transform="translate(-1964.177 91)" fill="none" stroke="#fff" stroke-width="1" opacity="0.1"/><path d="M1959,24.508,2111.953-90.855" transform="translate(-1960.873 91)" fill="none" stroke="#fff" stroke-width="1" opacity="0.1"/><path d="M1959,30.607,2120.04-90.855" transform="translate(-1949.96 91)" fill="none" stroke="#fff" stroke-width="1" opacity="0.1"/><path d="M1959,26.432,2114.5-90.855" transform="translate(-1925.424 91)" fill="none" stroke="#fff" stroke-width="1" opacity="0.1"/><path d="M1959,26.432,2114.5-90.855" transform="translate(-1906.424 91)" fill="none" stroke="#fff" stroke-width="1" opacity="0.1"/><path d="M1959,30.607,2120.04-90.855" transform="translate(-1892.96 91)" fill="none" stroke="#fff" stroke-width="1" opacity="0.1"/><path d="M1959,26.432,2114.5-90.855" transform="translate(-1868.424 91)" fill="none" stroke="#fff" stroke-width="1" opacity="0.1"/><path d="M1959,24.508,2111.954-90.855" transform="translate(-1846.873 91)" fill="none" stroke="#fff" stroke-width="1" opacity="0.1"/><path d="M1959,42.841l177.26-133.7" transform="translate(-1852.18 91)" fill="none" stroke="#fff" stroke-width="1" opacity="0.1"/><path d="M1959,26.432,2114.5-90.855" transform="translate(-1811.424 91)" fill="none" stroke="#fff" stroke-width="1" opacity="0.1"/><path d="M1959,32.315l163.3-123.17" transform="translate(-1800.224 91)" fill="none" stroke="#fff" stroke-width="1" opacity="0.1"/><path d="M1959,26.432,2114.5-90.855" transform="translate(-1773.424 91)" fill="none" stroke="#fff" stroke-width="1" opacity="0.1"/><path d="M1959,23.789,2111-90.855" transform="translate(-1750.919 91)" fill="none" stroke="#fff" stroke-width="1" opacity="0.1"/><path d="M1959,40.266,2132.846-90.855" transform="translate(-1753.766 91)" fill="none" stroke="#fff" stroke-width="1" opacity="0.1"/><path d="M1959,30.607,2120.04-90.855" transform="translate(-1721.96 91)" fill="none" stroke="#fff" stroke-width="1" opacity="0.1"/><path d="M1959,36.666,2128.072-90.855" transform="translate(-1710.993 91)" fill="none" stroke="#fff" stroke-width="1" opacity="0.1"/><path d="M1959,36.666,2128.072-90.855" transform="translate(-1691.993 91)" fill="none" stroke="#fff" stroke-width="1" opacity="0.1"/><path d="M1959,36.666,2128.072-90.855" transform="translate(-1672.993 91)" fill="none" stroke="#fff" stroke-width="1" opacity="0.1"/><path d="M1959,36.666,2128.072-90.855" transform="translate(-1653.993 91)" fill="none" stroke="#fff" stroke-width="1" opacity="0.1"/><path d="M1959,36.666,2128.072-90.855" transform="translate(-1634.993 91)" fill="none" stroke="#fff" stroke-width="1" opacity="0.1"/><path d="M1959,36.666,2128.072-90.855" transform="translate(-1615.993 91)" fill="none" stroke="#fff" stroke-width="1" opacity="0.1"/><path d="M1959,36.666,2128.072-90.855" transform="translate(-1595.993 91)" fill="none" stroke="#fff" stroke-width="1" opacity="0.1"/><g transform="translate(-125.177 0.145)"><path d="M1977.08-77.219,1959-90.855" transform="translate(-1445 90.855)" fill="none" stroke="#fff" stroke-width="1" opacity="0.1"/><path d="M1997.953-61.475,1959-90.855" transform="translate(-1464.001 90.855)" fill="none" stroke="#fff" stroke-width="1" opacity="0.1"/><path d="M2017.743-46.549,1959-90.855" transform="translate(-1483 90.855)" fill="none" stroke="#fff" stroke-width="1" opacity="0.1"/><path d="M2036.743-32.218,1959-90.855" transform="translate(-1502 90.855)" fill="none" stroke="#fff" stroke-width="1" opacity="0.1"/><path d="M2058.256-15.992,1959-90.855" transform="translate(-1521 90.855)" fill="none" stroke="#fff" stroke-width="1" opacity="0.1"/><path d="M2077.257-1.661,1959-90.855" transform="translate(-1540 90.855)" fill="none" stroke="#fff" stroke-width="1" opacity="0.1"/><path d="M2096.258,12.669,1959-90.855" transform="translate(-1559.001 90.855)" fill="none" stroke="#fff" stroke-width="1" opacity="0.1"/><path d="M2111.953,24.508,1959-90.855" transform="translate(-1578.001 90.855)" fill="none" stroke="#fff" stroke-width="1" opacity="0.1"/><path d="M2120.04,30.607,1959-90.855" transform="translate(-1597.002 90.855)" fill="none" stroke="#fff" stroke-width="1" opacity="0.1"/><path d="M2114.5,26.432,1959-90.855" transform="translate(-1616.002 90.855)" fill="none" stroke="#fff" stroke-width="1" opacity="0.1"/><path d="M2114.5,26.432,1959-90.855" transform="translate(-1635.002 90.855)" fill="none" stroke="#fff" stroke-width="1" opacity="0.1"/><path d="M2120.04,30.607,1959-90.855" transform="translate(-1654.002 90.855)" fill="none" stroke="#fff" stroke-width="1" opacity="0.1"/><path d="M2114.5,26.432,1959-90.855" transform="translate(-1673.002 90.855)" fill="none" stroke="#fff" stroke-width="1" opacity="0.1"/><path d="M2111.954,24.508,1959-90.855" transform="translate(-1692.003 90.855)" fill="none" stroke="#fff" stroke-width="1" opacity="0.1"/><path d="M2136.26,42.841,1959-90.855" transform="translate(-1711.001 90.855)" fill="none" stroke="#fff" stroke-width="1" opacity="0.1"/><path d="M2114.5,26.432,1959-90.855" transform="translate(-1730.002 90.855)" fill="none" stroke="#fff" stroke-width="1" opacity="0.1"/><path d="M2122.3,32.315,1959-90.855" transform="translate(-1749.002 90.855)" fill="none" stroke="#fff" stroke-width="1" opacity="0.1"/><path d="M2114.5,26.432,1959-90.855" transform="translate(-1768.002 90.855)" fill="none" stroke="#fff" stroke-width="1" opacity="0.1"/><path d="M2111,23.789,1959-90.855" transform="translate(-1786.999 90.855)" fill="none" stroke="#fff" stroke-width="1" opacity="0.1"/><path d="M2132.846,40.266,1959-90.855" transform="translate(-1806 90.855)" fill="none" stroke="#fff" stroke-width="1" opacity="0.1"/><path d="M2120.04,30.607,1959-90.855" transform="translate(-1825.002 90.855)" fill="none" stroke="#fff" stroke-width="1" opacity="0.1"/><path d="M2128.072,36.666,1959-90.855" transform="translate(-1844 90.855)" fill="none" stroke="#fff" stroke-width="1" opacity="0.1"/><path d="M2128.072,36.666,1959-90.855" transform="translate(-1863 90.855)" fill="none" stroke="#fff" stroke-width="1" opacity="0.1"/><path d="M2128.072,36.666,1959-90.855" transform="translate(-1882 90.855)" fill="none" stroke="#fff" stroke-width="1" opacity="0.1"/><path d="M2128.072,36.666,1959-90.855" transform="translate(-1901 90.855)" fill="none" stroke="#fff" stroke-width="1" opacity="0.1"/><path d="M2128.072,36.666,1959-90.855" transform="translate(-1920 90.855)" fill="none" stroke="#fff" stroke-width="1" opacity="0.1"/><path d="M2128.072,36.666,1959-90.855" transform="translate(-1939 90.855)" fill="none" stroke="#fff" stroke-width="1" opacity="0.1"/><path d="M2128.072,36.666,1959-90.855" transform="translate(-1959 90.855)" fill="none" stroke="#fff" stroke-width="1" opacity="0.1"/></g><text transform="translate(241 63)" fill="#fff" font-size="24" font-family="Avenir-Black, Avenir" font-weight="800" letter-spacing="0.3em"><tspan x="0" y="0">FDG</tspan></text></g></svg>